<svg xmlns="http://www.w3.org/2000/svg" viewBox="0 0 21 21">
    <defs>
        <style>
            .cls-1{fill:none}.cls-2{fill:#322835}
        </style>
    </defs>
    <g id="ic_search_" data-name="ic_search" transform="translate(-31.65 -47.7)">
        <path id="square" d="M0 0h21v21H0z" class="cls-1" transform="translate(31.65 47.7)"/>
        <path id="path" d="M45.338 60.325h-.7l-.263-.262a5.477 5.477 0 0 0 1.4-3.675 5.688 5.688 0 1 0-5.687 5.688 5.477 5.477 0 0 0 3.675-1.4l.263.263v.7l4.374 4.374 1.313-1.313zm-5.25 0a3.938 3.938 0 1 1 3.938-3.938 3.921 3.921 0 0 1-3.938 3.938z" class="cls-2" transform="translate(-.125 -.375)"/>
    </g>
</svg>
